<?xml version="1.0" encoding="utf-8"?><!-- Uploaded to: SVG Repo, www.svgrepo.com, Generator: SVG Repo Mixer Tools -->
<svg width="800px" height="800px" viewBox="0 0 48 48" xmlns="http://www.w3.org/2000/svg"><title>Free Medical icons</title><path d="M30.88,31.45A2,2,0,0,1,29.46,28l2.81-2.84A2,2,0,1,1,35.12,28L32.3,30.86A2,2,0,0,1,30.88,31.45Z" fill="#a6c7ff"/><path d="M19.51,20.19a2,2,0,0,1-1.42-3.41l2.81-2.84a2,2,0,0,1,2.84,2.81L20.93,19.6A2,2,0,0,1,19.51,20.19Z" fill="#a6c7ff"/><path d="M25.2,25.82a2,2,0,0,1-1.42-3.41l2.81-2.84a2,2,0,1,1,2.84,2.81l-2.81,2.84A2,2,0,0,1,25.2,25.82Z" fill="#a6c7ff"/><path d="M13.86,14.54a2,2,0,0,1-1.42-3.41l2.81-2.84a2,2,0,1,1,2.84,2.81l-2.81,2.84A2,2,0,0,1,13.86,14.54Z" fill="#a6c7ff"/><path d="M41.9,47.27A5.46,5.46,0,0,1,38,45.68l-4.79-4.75-2.3-.14a8,8,0,0,1-5.14-2.3L3.27,16.12A9,9,0,0,1,9.56.73h0a8.94,8.94,0,0,1,6.33,2.61L38.46,25.7a8,8,0,0,1,2.35,5.11L41,33.12l4.79,4.75a5.5,5.5,0,0,1-3.84,9.41h0ZM9.6,4.73h0a5,5,0,0,0-3.49,8.55h0L28.61,35.65a4,4,0,0,0,2.57,1.15L35,37l5.86,5.81a1.49,1.49,0,0,0,1.05.43h0a1.5,1.5,0,0,0,1-2.57L37.09,34.9l-0.27-3.8a4,4,0,0,0-1.17-2.56L13.12,6.17A5,5,0,0,0,9.6,4.73Z" fill="#2161ff"/><rect width="48" height="48" fill="none"/></svg>