<?xml version="1.0" encoding="utf-8"?><!-- Uploaded to: SVG Repo, www.svgrepo.com, Generator: SVG Repo Mixer Tools -->
<svg width="800px" height="800px" viewBox="0 0 48 48" xmlns="http://www.w3.org/2000/svg"><title>Free Medical icons</title><path d="M24,39C13.73,39,4.63,33.43.8,24.81L0.44,24l0.36-.81a24.09,24.09,0,0,1,14.57-12.8,27.73,27.73,0,0,1,16.33-.29A24.11,24.11,0,0,1,47.2,23.19L47.56,24l-0.36.81C43.37,33.43,34.26,39,24,39ZM4.84,24C8.23,30.71,15.65,35,24,35s15.77-4.29,19.16-11A20.27,20.27,0,0,0,30.57,13.93a23.73,23.73,0,0,0-13.94.25A20.25,20.25,0,0,0,4.84,24Z" fill="#2161ff"/><path d="M24,32a12,12,0,0,1-6.71-21.95l2.24,3.31a8,8,0,1,0,8.76-.12l2.15-3.38A12,12,0,0,1,24,32Z" fill="#2161ff"/><circle cx="24" cy="20" r="4" fill="#a6c7ff"/><rect width="48" height="48" fill="none"/></svg>