<?xml version="1.0" encoding="utf-8"?><!-- Uploaded to: SVG Repo, www.svgrepo.com, Generator: SVG Repo Mixer Tools -->
<svg width="800px" height="800px" viewBox="0 0 48 48" xmlns="http://www.w3.org/2000/svg"><title>Free Medical icons</title><path d="M26,46.58A2,2,0,0,1,24.58,46C21.73,43.12,7.45,28.68,6,26.31A13.81,13.81,0,0,1,9.47,8.15a11.61,11.61,0,0,1,9.16-2A12.1,12.1,0,0,1,26,10.93a12.1,12.1,0,0,1,7.37-4.78,11.61,11.61,0,0,1,9.16,2A13.81,13.81,0,0,1,46,26.31C44.55,28.69,30.27,43.12,27.42,46A2,2,0,0,1,26,46.58ZM16.32,9.92A7.73,7.73,0,0,0,11.8,11.4,9.75,9.75,0,0,0,9.42,24.23c0.83,1.36,9.75,10.6,16.58,17.51,6.83-6.91,15.75-16.15,16.58-17.51l1.71,1-1.71-1A9.75,9.75,0,0,0,40.2,11.4a7.66,7.66,0,0,0-6-1.33A8.26,8.26,0,0,0,28.77,14a12.81,12.81,0,0,0-.9,2,2,2,0,0,1-3.74,0,12.85,12.85,0,0,0-.9-2,8.26,8.26,0,0,0-5.4-3.91A7.62,7.62,0,0,0,16.32,9.92Z" fill="#2161ff"/><path d="M23,32h0a2,2,0,0,1-1.71-1l-4.42-8.1-2.17,3.25A2,2,0,0,1,13,27H2a2,2,0,0,1,0-4h9.93l3.41-5.11A2,2,0,0,1,17.09,17a2,2,0,0,1,1.67,1L23.08,26l1.2-2A2,2,0,0,1,26,23h5a2,2,0,0,1,0,4H27.13l-2.42,4A2,2,0,0,1,23,32Z" fill="#a6c7ff"/><rect width="48" height="48" fill="none"/></svg>