<?xml version="1.0" encoding="utf-8"?><!-- Uploaded to: SVG Repo, www.svgrepo.com, Generator: SVG Repo Mixer Tools -->
<svg width="800px" height="800px" viewBox="0 0 48 48" xmlns="http://www.w3.org/2000/svg"><title>kidney</title><path d="M45.83,19c0.2,1.61.72,5.81-1.89,9-0.37.46-2.89,3.53-6.13,2.88C34.86,30.31,32.38,27.1,33,25s3.62-1.24,6.53-4c3.53-3.35,3-8.21,4.21-8.19S45.6,17.15,45.83,19Z" fill="#a6c7ff"/><path d="M2.18,18.63c-0.2,1.61-.72,5.81,1.89,9C4.44,28.08,7,31.15,10.2,30.5c2.95-.59,5.44-3.81,4.83-5.87s-3.62-1.24-6.53-4c-3.53-3.35-3-8.21-4.21-8.19S2.41,16.74,2.18,18.63Z" fill="#a6c7ff"/><path d="M38.74,32.59a6.75,6.75,0,0,1-1.33-.13c-3.66-.74-6-4.37-6.42-7.57a7.17,7.17,0,0,1,.72-4.21,3.59,3.59,0,0,0,.45-2.11,5.16,5.16,0,0,0-1.28-2.74A7.49,7.49,0,0,1,29,10.77c0-.62.24-3.79,2.66-5.49S36.95,4.57,38,4.94c5,1.74,9,7.26,9.78,13.44h0C48,20.2,48.63,25,45.48,28.89,44.51,30.08,42.06,32.59,38.74,32.59ZM34.86,8.31a1.55,1.55,0,0,0-.9.24,3.41,3.41,0,0,0-1,2.34,3.7,3.7,0,0,0,1.09,2.55,8.89,8.89,0,0,1,2,4.74,7.52,7.52,0,0,1-.77,4.12A3.25,3.25,0,0,0,35,24.36c0.23,1.74,1.54,3.83,3.25,4.18,1.92,0.4,3.69-1.57,4.19-2.18,2.06-2.53,1.63-6,1.45-7.49h0C43.26,14.22,40.27,10,36.71,8.72A6,6,0,0,0,34.86,8.31Z" fill="#2161ff"/><path d="M26.89,42a2,2,0,0,1-2-2V23a6,6,0,0,1,6-6h2a2,2,0,0,1,0,4h-2a2,2,0,0,0-2,2V40A2,2,0,0,1,26.89,42Z" fill="#2161ff"/><path d="M9.26,32.59c-3.32,0-5.77-2.52-6.75-3.7C-0.63,25,0,20.2.19,18.38,1,12.2,5,6.68,10,4.94c1.08-.37,3.94-1.37,6.36.34S19,10.15,19,10.77a7.49,7.49,0,0,1-1.87,5.05,5.16,5.16,0,0,0-1.28,2.74,3.59,3.59,0,0,0,.45,2.11A7.17,7.17,0,0,1,17,24.89c-0.42,3.21-2.76,6.84-6.42,7.57A6.74,6.74,0,0,1,9.26,32.59ZM13.14,8.31a6,6,0,0,0-1.85.41C7.73,10,4.74,14.22,4.16,18.87h0c-0.18,1.49-.61,5,1.45,7.49C6.11,27,7.89,28.94,9.8,28.54c1.71-.34,3-2.44,3.25-4.18a3.25,3.25,0,0,0-.41-2.06,7.52,7.52,0,0,1-.77-4.12,8.89,8.89,0,0,1,2-4.74A3.7,3.7,0,0,0,15,10.9a3.41,3.41,0,0,0-1-2.34A1.56,1.56,0,0,0,13.14,8.31Z" fill="#2161ff"/><path d="M21.11,42a2,2,0,0,1-2-2V23a2,2,0,0,0-2-2h-2a2,2,0,1,1,0-4h2a6,6,0,0,1,6,6V40A2,2,0,0,1,21.11,42Z" fill="#2161ff"/><rect width="48" height="48" fill="none"/></svg>