<?xml version="1.0" encoding="utf-8"?><!-- Uploaded to: SVG Repo, www.svgrepo.com, Generator: SVG Repo Mixer Tools -->
<svg width="800px" height="800px" viewBox="0 0 48 48" xmlns="http://www.w3.org/2000/svg"><title>Free Medical icons</title><path d="M35.49,48a6,6,0,0,1-5.82-4.55c-0.07-.28-0.13-0.56-0.2-0.84C29.33,42,29.2,41.4,29,40.86,27.08,35,26.75,34.1,26.69,34a2.32,2.32,0,0,1-.14-0.48,2.26,2.26,0,0,0-2.34-2,2.24,2.24,0,0,0-1.92,2,2,2,0,0,1-.08.35l-2.34,7.11a16.81,16.81,0,0,0-.45,1.86l-0.07.33A6.09,6.09,0,0,1,16.72,47a5.8,5.8,0,0,1-5.89.28A6.2,6.2,0,0,1,7.5,42.08V23.64a6.9,6.9,0,0,0-1.45-4.25A11.93,11.93,0,0,1,3.62,10.3,12.75,12.75,0,0,1,14.15.07,11.92,11.92,0,0,1,24,3.54a12,12,0,0,1,20.41,7,12.06,12.06,0,0,1-1.88,8,6.8,6.8,0,0,0-1,3.76V41.83A6.14,6.14,0,0,1,36.08,48Zm-5-15.35c0.19,0.5.7,2,2.34,7,0.24,0.72.4,1.43,0.56,2.11,0.06,0.26.12,0.52,0.18,0.78A2,2,0,0,0,35.7,44a2.11,2.11,0,0,0,1.8-2.16V22.34a10.78,10.78,0,0,1,1.69-6A8,8,0,1,0,25.7,7.8a2,2,0,0,1-3.4,0A8,8,0,0,0,14.59,4a8.73,8.73,0,0,0-7,6.8A8,8,0,0,0,9.2,16.92a10.92,10.92,0,0,1,2.3,6.72V42a2.17,2.17,0,0,0,1.17,1.78,1.81,1.81,0,0,0,1.88-.09,2.15,2.15,0,0,0,.89-1.39L15.51,42a20.1,20.1,0,0,1,.57-2.3l2.29-7A6.12,6.12,0,0,1,30.47,32.65Z" fill="#2161ff"/><circle cx="16" cy="15" r="2" fill="#a6c7ff"/><circle cx="23" cy="15" r="2" fill="#a6c7ff"/><circle cx="16" cy="22" r="2" fill="#a6c7ff"/><circle cx="23" cy="22" r="2" fill="#a6c7ff"/><rect width="48" height="48" fill="none"/></svg>